<?xml version="1.0" encoding="UTF-8"?>
<svg id="Capa_2" data-name="Capa 2" xmlns="http://www.w3.org/2000/svg" viewBox="0 0 528.48 529.99">
  <defs>
    <style>
      .cls-1 {
        fill-rule: evenodd;
      }
    </style>
  </defs>
  <g id="Capa_1-2" data-name="Capa 1">
    <path class="cls-1" d="M0,203.34C11.34,93.7,100.54,7.17,211.37.01c-1.29,1.04-2.48,2.21-3.55,3.52-46.6,57.3-75.56,126.71-83.66,199.8H0ZM138.32,337.45c0,1.66.06,3.32.18,4.96v94.54C63.38,405.5,8.71,334.91,0,250.68h124.16c2.77,25.02,7.99,49.6,15.52,73.42-.89,4.34-1.35,8.81-1.35,13.35ZM171.84,250.68h66.3l-59.88,25.94c-.64.28-1.28.57-1.92.87-1.86-8.86-3.36-17.8-4.5-26.81ZM452.52,203.34h-124.31c-8.1-73.1-37.06-142.5-83.66-199.8-1.07-1.31-2.26-2.49-3.56-3.53,110.9,7.09,200.18,93.65,211.52,203.34ZM171.84,203.34h108.7c-6.58-51.96-25.2-101.65-54.35-145.1-29.15,43.45-47.77,93.14-54.35,145.1ZM365.52,254.15c-5.25-2.27-11.2-2.27-16.44,0l-150.51,65.21c-1.59.69-3.06,1.56-4.4,2.59-7.9,4.42-13.24,12.87-13.24,22.57v114.71c0,14.28,11.57,25.85,25.85,25.85s25.85-11.57,25.85-25.85v-87.16l116.44,50.45c5.25,2.27,11.2,2.27,16.44,0l150.5-65.21c7.56-3.28,12.46-10.73,12.46-18.97s-4.89-15.7-12.46-18.98l-150.5-65.21ZM254.43,424.97l76.66,33.22c16.72,7.24,35.68,7.24,52.4,0l76.65-33.22v51.46c.01,4.52-1.47,8.91-4.2,12.51l-16.45-12.5,16.45,12.5-.03.03-.03.04-.07.09-.17.21-.46.57c-.36.44-.83,1-1.41,1.65-1.16,1.31-2.77,3.02-4.84,5-4.15,3.95-10.2,8.99-18.29,13.96-16.32,10.01-40.57,19.5-73.37,19.5s-57.02-9.48-73.32-19.51c-8.08-4.97-14.12-10.01-18.26-13.97-2.07-1.98-3.67-3.7-4.83-5.01-.58-.66-1.04-1.21-1.4-1.65l-.46-.57-.17-.22-.07-.09-.03-.04s-.03-.04,16.47-12.5l-16.49,12.46c-2.7-3.58-4.17-7.94-4.18-12.42l-.11-51.51Z"/>
  </g>
</svg>